<?xml version="1.0" encoding="UTF-8" standalone="no"?><!DOCTYPE svg PUBLIC "-//W3C//DTD SVG 1.1//EN" "http://www.w3.org/Graphics/SVG/1.1/DTD/svg11.dtd"><svg width="100%" height="100%" viewBox="0 0 232 121" version="1.1" xmlns="http://www.w3.org/2000/svg" xmlns:xlink="http://www.w3.org/1999/xlink" xml:space="preserve" xmlns:serif="http://www.serif.com/" style="fill-rule:evenodd;clip-rule:evenodd;stroke-linecap:round;stroke-linejoin:round;stroke-miterlimit:1.5;"><path d="M16.583,9.087c-0.415,0.109 -0.726,0.572 -0.906,0.916c-0.178,0.343 -0.199,0.762 -0.171,1.148c0.029,0.391 0.12,0.847 0.343,1.198c0.285,0.449 0.894,1.017 1.369,1.5c1.736,1.763 6.026,6.06 9.047,9.082c3.786,3.787 9.618,9.585 13.665,13.64c3.548,3.555 7.064,7.142 10.617,10.691c3.646,3.641 7.515,7.428 11.256,11.158c6.88,6.857 21.46,21.413 30.021,29.983c7.125,7.134 17.608,17.707 21.341,21.436c0.334,0.334 0.712,0.687 1.061,0.94c0.319,0.231 0.792,0.481 1.033,0.577c0.129,0.051 0.287,0.049 0.416,-0c0.22,-0.083 0.635,-0.279 0.9,-0.497c0.512,-0.423 1.468,-1.341 2.174,-2.04c0.944,-0.935 2.314,-2.393 3.49,-3.57c5.248,-5.256 18.669,-18.643 28.003,-27.966c14.669,-14.653 49.163,-49.108 60.015,-59.955c1.704,-1.703 4.178,-4.096 5.094,-5.125c0.249,-0.279 0.405,-0.673 0.403,-1.047c-0.002,-0.412 -0.233,-1.092 -0.416,-1.423c-0.143,-0.258 -0.4,-0.483 -0.685,-0.564c-0.369,-0.105 -1.019,-0.065 -1.53,-0.067c-1.091,-0.004 -3.346,0.038 -5.02,0.041c-2.946,0.004 -8.438,-0.013 -12.657,-0.014c-14.899,-0.005 -51.157,-0.017 -76.736,-0.016c-26.925,0.001 -68.727,0.024 -84.818,0.022c-3.909,-0.001 -9.267,-0.028 -11.728,-0.034c-1.012,-0.002 -2.106,0.003 -3.036,0c-0.848,-0.002 -1.97,-0.164 -2.545,-0.014Z" style="fill-opacity:0;stroke:#000;stroke-width:11.6px;"/></svg>