<?xml version="1.0" encoding="UTF-8" standalone="no"?><!DOCTYPE svg PUBLIC "-//W3C//DTD SVG 1.1//EN" "http://www.w3.org/Graphics/SVG/1.1/DTD/svg11.dtd"><svg width="100%" height="100%" viewBox="0 0 232 121" version="1.1" xmlns="http://www.w3.org/2000/svg" xmlns:xlink="http://www.w3.org/1999/xlink" xml:space="preserve" xmlns:serif="http://www.serif.com/" style="fill-rule:evenodd;clip-rule:evenodd;stroke-linecap:round;stroke-linejoin:round;stroke-miterlimit:1.5;"><path d="M3.317,2.156c-0.471,0.123 -0.824,0.649 -1.028,1.039c-0.203,0.389 -0.226,0.865 -0.194,1.302c0.032,0.444 0.136,0.962 0.389,1.36c0.323,0.51 1.014,1.154 1.553,1.702c1.97,2.001 6.839,6.876 10.267,10.306c4.295,4.297 10.913,10.876 15.506,15.478c4.026,4.034 8.015,8.104 12.047,12.131c4.137,4.132 8.527,8.429 12.773,12.661c7.806,7.781 24.351,24.299 34.065,34.024c8.086,8.094 19.981,20.092 24.218,24.324c0.379,0.378 0.807,0.779 1.203,1.066c0.362,0.263 0.898,0.546 1.172,0.655c0.147,0.058 0.325,0.055 0.473,-0c0.248,-0.094 0.72,-0.316 1.02,-0.564c0.581,-0.479 1.666,-1.521 2.467,-2.315c1.072,-1.061 2.626,-2.715 3.96,-4.051c5.956,-5.964 21.186,-21.155 31.776,-31.734c16.647,-16.627 55.788,-55.724 68.102,-68.033c1.933,-1.932 4.741,-4.648 5.781,-5.816c0.282,-0.317 0.459,-0.764 0.457,-1.188c-0.003,-0.467 -0.264,-1.239 -0.472,-1.614c-0.163,-0.294 -0.455,-0.548 -0.777,-0.64c-0.419,-0.119 -1.157,-0.074 -1.736,-0.076c-1.239,-0.005 -3.798,0.043 -5.697,0.046c-3.343,0.005 -9.575,-0.014 -14.362,-0.016c-16.906,-0.005 -58.05,-0.019 -87.075,-0.018c-30.554,0.001 -77.988,0.027 -96.247,0.025c-4.436,-0.001 -10.516,-0.032 -13.308,-0.038c-1.149,-0.003 -2.39,0.003 -3.446,-0c-0.962,-0.003 -2.234,-0.187 -2.887,-0.016Z" style="fill-opacity:0;stroke:#000;stroke-width:3.62px;"/></svg>